<svg width="156" height="35" viewBox="0 0 156 35" fill="none" xmlns="http://www.w3.org/2000/svg">
<path d="M20.2722 1.33112L11.9258 6.8555C12.0564 6.93225 12.1869 7.009 12.3158 7.09454L22.3832 13.7585C27.1267 16.8983 27.1267 23.8651 22.3832 27.0049L20.6616 28.1445C25.8877 31.2081 32.587 27.4578 32.587 21.2825V7.95463C32.5876 1.62466 25.5481 -2.16079 20.2722 1.33112Z" fill="#00CE7C"/>
<path d="M10.2044 21.2416C5.46086 18.1018 5.46086 11.1349 10.2044 7.99514L11.926 6.85558C6.69931 3.79254 0 7.54283 0 13.7181V27.0454C0 33.3754 7.03951 37.1608 12.3153 33.6683L20.6612 28.144C20.5306 28.0672 20.4001 27.9905 20.2712 27.9049L10.2044 21.2416Z" fill="#121E49"/>
<path d="M22.3831 13.7584L12.3157 7.09451C12.1868 7.00956 12.0563 6.93222 11.9257 6.85547L10.2042 7.99503C5.46059 11.1348 5.46059 18.1017 10.2042 21.2415L20.2721 27.9054C20.401 27.9903 20.5315 28.0677 20.6621 28.1444L22.3836 27.0049C27.1272 23.8651 27.1272 16.8982 22.3831 13.7584Z" fill="#096E53"/>
<path d="M40.5049 6.41945C40.5049 4.96996 41.6836 4.19482 42.8289 4.19482C43.9403 4.19482 45.153 4.96996 45.153 6.41945C45.153 7.90235 43.9403 8.77825 42.8289 8.77825C41.6842 8.77884 40.5049 7.90235 40.5049 6.41945Z" fill="#121E49"/>
<path d="M40.707 25.7645V11.8794C40.707 11.3738 41.0104 11.0703 41.5157 11.0703H44.1431C44.6484 11.0703 44.9511 11.3738 44.9511 11.8794L44.9177 25.7645C44.9177 26.2701 44.6144 26.5736 44.1091 26.5736H41.5157C41.0104 26.5736 40.707 26.2701 40.707 25.7645Z" fill="#121E49"/>
<path d="M48.8574 25.7643V11.8792C48.8574 11.3736 49.1602 11.0701 49.6655 11.0701H52.2589C52.7642 11.0701 53.0675 11.3396 53.0675 11.8118V12.553C54.2463 11.2722 55.8969 10.834 57.4123 10.834C60.2078 10.834 63.4418 12.3509 63.4418 17.1024V25.7637C63.4418 26.2693 63.1385 26.5728 62.6331 26.5728H60.0397C59.5344 26.5728 59.2311 26.2693 59.2311 25.7637V17.7428C59.2311 15.0132 57.311 14.3722 56.1323 14.3722C54.9196 14.3722 53.0675 15.0126 53.0675 17.7428V25.7637C53.0675 26.2693 52.7642 26.5728 52.2589 26.5728H49.6655C49.1602 26.5734 48.8574 26.2699 48.8574 25.7643Z" fill="#121E49"/>
<path d="M67.1465 25.7644V5.47611C67.1465 4.97048 67.4492 4.66699 67.9546 4.66699H70.5819C71.0873 4.66699 71.3906 4.97048 71.3906 5.47611L71.3572 25.765C71.3572 26.2706 71.0539 26.5741 70.5485 26.5741H67.9551C67.4498 26.5735 67.1465 26.27 67.1465 25.7644Z" fill="#121E49"/>
<path d="M74.5234 18.8224C74.5234 14.1376 77.6222 10.835 81.8663 10.835C83.8197 10.835 85.2683 11.5427 86.3124 12.7221V11.8796C86.3124 11.374 86.6151 11.0705 87.1204 11.0705H89.7139C90.2192 11.0705 90.5219 11.374 90.5219 11.8796V25.7647C90.5219 26.2703 90.2192 26.5738 89.7139 26.5738H87.1204C86.6151 26.5738 86.3124 26.2703 86.3124 25.7647V24.9561C85.2683 26.1355 83.8197 26.8433 81.8663 26.8433C77.6228 26.8433 74.5234 23.4392 74.5234 18.8224ZM86.313 18.8224C86.313 16.497 84.797 14.778 82.4729 14.778C80.1488 14.778 78.5995 16.497 78.5995 18.8224C78.5995 21.1478 80.1488 22.8668 82.4729 22.8668C84.797 22.8662 86.313 21.1478 86.313 18.8224Z" fill="#121E49"/>
<path d="M94.2266 25.7643V11.8792C94.2266 11.3736 94.5293 11.0701 95.0346 11.0701H97.628C98.1334 11.0701 98.4367 11.3396 98.4367 11.8118V12.553C99.6154 11.2722 101.266 10.834 102.781 10.834C105.577 10.834 108.811 12.3509 108.811 17.1024V25.7637C108.811 26.2693 108.508 26.5728 108.002 26.5728H105.409C104.904 26.5728 104.6 26.2693 104.6 25.7637V17.7428C104.6 15.0132 102.68 14.3722 101.501 14.3722C100.289 14.3722 98.4367 15.0126 98.4367 17.7428V25.7637C98.4367 26.2693 98.1334 26.5728 97.628 26.5728H95.0346C94.5299 26.5734 94.2266 26.2699 94.2266 25.7643Z" fill="#121E49"/>
<path d="M111.944 18.8222C111.944 14.1374 115.178 10.8008 119.86 10.8008C122.285 10.8008 124.306 11.7441 125.653 13.2943C125.99 13.6986 125.923 14.1035 125.519 14.4403L123.767 15.7885C123.363 16.092 123.026 16.058 122.622 15.7211C122.049 15.2155 121.207 14.7772 119.961 14.7772C117.637 14.7772 116.054 16.4962 116.054 18.8216C116.054 21.147 117.637 22.866 119.961 22.866C121.241 22.866 122.049 22.4618 122.622 21.9901C123.026 21.6533 123.363 21.6193 123.767 21.9228L125.519 23.2375C125.957 23.5744 126.024 23.9113 125.721 24.2821C124.34 25.8998 122.319 26.8771 119.86 26.8771C115.178 26.8771 111.944 23.5064 111.944 18.8222Z" fill="#121E49"/>
<path d="M128.044 18.8224C128.044 14.205 131.075 10.7676 135.757 10.7676C140.372 10.7676 143.202 14.205 143.202 18.8224V19.1593C143.202 19.6649 142.898 19.9684 142.393 19.9684H132.086C132.49 22.0577 134.006 23.3051 135.926 23.3051C137.475 23.3051 138.452 22.7661 139.092 22.1931C139.463 21.8562 139.799 21.7888 140.204 22.0923L141.787 23.2717C142.225 23.6086 142.326 23.9455 142.023 24.3163C140.642 25.934 138.486 26.9112 135.926 26.9112C131.177 26.9107 128.044 23.4392 128.044 18.8224ZM139.261 17.3055C138.89 15.4858 137.745 14.1036 135.757 14.1036C133.837 14.1036 132.557 15.3504 132.153 17.3055H139.261Z" fill="#121E49"/>
<path d="M146.333 25.7642V11.8791C146.333 11.3735 146.636 11.07 147.141 11.07H149.734C150.24 11.07 150.543 11.3735 150.543 11.8791V13.8677C151.688 12.0479 153.406 11.138 155.157 10.9019C155.696 10.8345 155.999 11.1374 155.999 11.677V14.0024C155.999 14.508 155.73 14.7776 155.225 14.8109C153.439 14.9791 150.543 15.6874 150.543 19.4618V25.7642C150.543 26.2698 150.24 26.5733 149.734 26.5733H147.141C146.636 26.5733 146.333 26.2698 146.333 25.7642Z" fill="#121E49"/>
</svg>
